<svg width="100" height="100" viewBox="0 0 100 100" fill="none" xmlns="http://www.w3.org/2000/svg">
<rect width="100" height="100" rx="21" fill="white"/>
<path d="M49.5713 57.6184C44.5769 49.6278 36.2995 48.4197 36.2995 48.4197C36.2995 48.4197 35.712 56.4322 40.8941 64.5817C46.0762 72.7312 62.8302 87.3979 62.8302 87.3979C62.8302 87.3979 54.5657 65.6089 49.5713 57.6184Z" fill="white" stroke="black" stroke-width="1.5" stroke-linejoin="round"/>
<path d="M54.6755 49.5368C45.1132 46.5622 36.3803 49.5368 36.3803 49.5368C36.3803 49.5368 41.2839 55.1021 51.1026 58.0826C60.9213 61.0631 84.649 62.7404 84.649 62.7404C84.649 62.7404 64.2378 52.5113 54.6755 49.5368Z" fill="#C63631" stroke="black" stroke-width="1.5" stroke-linejoin="round"/>
<path d="M39.3628 33.943C33.9537 41.7071 35.8065 50.1485 35.8065 50.1485C35.8065 50.1485 42.0544 47.0389 47.5296 39.0495C53.0048 31.06 61.8215 8.87506 61.8215 8.87506C61.8215 8.87506 44.7719 26.1789 39.3628 33.943Z" fill="#467523" stroke="black" stroke-width="1.5" stroke-linejoin="round"/>
<path d="M27.1127 36.2642C28.7183 45.3388 36.2183 49.9627 36.2183 49.9627C36.2183 49.9627 39.2927 44.5823 37.3211 33.9431C35.3495 23.3038 26.3552 5.00659 26.3552 5.00659C26.3552 5.00659 25.5071 27.1895 27.1127 36.2642Z" fill="#FFB617" stroke="black" stroke-width="1.5" stroke-linejoin="round"/>
<path d="M38.3419 65.5101C40.14 56.4654 36.4676 48.6156 36.4676 48.6156C36.4676 48.6156 29.3892 54.3771 27.6231 63.6532C25.857 72.9294 29.3602 94 29.3602 94C29.3602 94 36.5438 74.5549 38.3419 65.5101Z" fill="#C63631" stroke="black" stroke-width="1.5" stroke-linejoin="round"/>
<path d="M49.5713 40.4422C39.9476 43.2481 35.864 49.5168 35.864 49.5168C35.864 49.5168 42.8006 51.2744 52.6339 48.3339C62.4671 45.3935 83.2537 33.8995 83.2537 33.8995C83.2537 33.8995 59.195 37.6362 49.5713 40.4422Z" fill="#D0112B" stroke="black" stroke-width="1.5" stroke-linejoin="round"/>
</svg>
